HIERARCHY
ROOT Hips
{
	OFFSET 0.00 0.00 0.00
	CHANNELS 6 Xposition Yposition Zposition Xrotation Yrotation Zrotation
	JOINT Spine
	{
		OFFSET 0.00000 6.11665 0.00000
		CHANNELS 3 Xrotation Yrotation Zrotation
		JOINT Head
		{
			OFFSET 0.00000 15.22556 0.00000
			CHANNELS 3 Xrotation Yrotation Zrotation
			End Site
			{
				OFFSET 0.00000 4.52755 0.00000
			}
		}
		JOINT LeftShoulder
		{
			OFFSET 0.00000 8.97765 0.00000
			CHANNELS 3 Xrotation Yrotation Zrotation
			JOINT LeftArm
			{
				OFFSET 7.11013 0.00000 0.00000
				CHANNELS 3 Xrotation Yrotation Zrotation
				JOINT LeftForeArm
				{
					OFFSET 10.39834 0.00000 0.00000
					CHANNELS 3 Yrotation Zrotation Xrotation
					JOINT LeftHand
					{
						OFFSET 8.88900 0.00000 0.00000
						CHANNELS 3 Xrotation Yrotation Zrotation
						JOINT LeftHandThumb1
						{
							OFFSET 0.00000 0.00000 0.00000
							CHANNELS 3 Xrotation Zrotation Yrotation
							End Site
							{
								OFFSET 0.00000 0.00000 3.93700
							}
						}
						End Site
						{
							OFFSET 3.93700 0.00000 0.00000
						}
					}
				}
			}
		}
		JOINT RightShoulder
		{
			OFFSET 0.00000 8.97765 0.00000
			CHANNELS 3 Xrotation Yrotation Zrotation
			JOINT RightArm
			{
				OFFSET -7.11013 0.00000 0.00000
				CHANNELS 3 Xrotation Yrotation Zrotation
				JOINT RightForeArm
				{
					OFFSET -10.39834 0.00000 0.00000
					CHANNELS 3 Yrotation Zrotation Xrotation
					JOINT RightHand
					{
						OFFSET -8.88900 0.00000 0.00000
						CHANNELS 3 Xrotation Yrotation Zrotation
						JOINT RightHandThumb1
						{
							OFFSET 0.00000 0.00000 0.00000
							CHANNELS 3 Xrotation Zrotation Yrotation
							End Site
							{
								OFFSET 0.00000 0.00000 3.93700
							}
						}
						End Site
						{
							OFFSET -3.93700 0.00000 0.00000
						}
					}
				}
			}
		}
	}
	JOINT LeftUpLeg
	{
		OFFSET 4.71176 0.00000 0.00000
		CHANNELS 3 Xrotation Yrotation Zrotation
		JOINT LeftLeg
		{
			OFFSET 0.00000 -15.51045 0.00000
			CHANNELS 3 Xrotation Yrotation Zrotation
			JOINT LeftFoot
			{
				OFFSET 0.00000 -14.85806 0.00000
				CHANNELS 3 Xrotation Yrotation Zrotation
				JOINT LeftToeBase
				{
					OFFSET 0.00000 -1.32744 4.95409
					CHANNELS 3 Xrotation Yrotation Zrotation
					End Site
					{
						OFFSET 0.00000 0.00000 2.95275
					}
				}
			}
		}
	}
	JOINT RightUpLeg
	{
		OFFSET -4.71176 0.00000 0.00000
		CHANNELS 3 Xrotation Yrotation Zrotation
		JOINT RightLeg
		{
			OFFSET 0.00000 -15.51045 0.00000
			CHANNELS 3 Xrotation Yrotation Zrotation
			JOINT RightFoot
			{
				OFFSET 0.00000 -14.85806 0.00000
				CHANNELS 3 Xrotation Yrotation Zrotation
				JOINT RightToeBase
				{
					OFFSET 0.00000 -1.32744 4.95409
					CHANNELS 3 Xrotation Yrotation Zrotation
					End Site
					{
						OFFSET 0.00000 0.00000 2.95275
					}
				}
			}
		}
	}
}
MOTION
Frames: 11
Frame Time: 0.008333
 4.1799 32.3573 0.6907 -4.9648 -0.9325 0.2075 3.1055 4.0439 -0.2224 2.3238 -4.4820 3.1146 -14.2921 6.1008 42.3413 -20.0789 -3.1585 -42.3150 10.7163 0.0000 19.7865 -0.8172 -9.7767 -4.8015 33.1476 -0.0000 26.2537 1.1089 -26.1486 -42.3063 -23.2344 3.0119 40.4778 5.9725 -0.0000 19.0143 -2.3706 14.6416 9.3012 32.8623 0.0000 -24.3270 11.1140 -0.5381 -1.1016 2.4857 -0.0000 0.0000 -12.8762 24.1259 -12.3823 16.4074 0.0000 0.0000 9.3162 -6.4388 1.9164 1.9295 0.0000 -0.0000 -9.7984 -18.0785 6.3027 10.4146 0.0000 -0.0000
 4.1804 32.3572 0.6896 -4.9636 -0.9207 0.2144 3.1052 4.0458 -0.2283 2.3328 -4.4903 3.1113 -14.2819 6.1009 42.3387 -20.0851 -3.1711 -42.3242 10.7186 0.0000 19.8050 -0.8171 -9.7713 -4.8033 33.1476 -0.0000 26.2537 1.0984 -26.1553 -42.3152 -23.2095 3.0359 40.4834 5.9694 -0.0000 18.9852 -2.3723 14.6793 9.2846 32.8623 0.0000 -24.3270 11.1077 -0.5682 -1.1067 2.4873 -0.0000 -0.0000 -12.8711 24.1496 -12.4038 16.4520 0.0000 0.0000 9.3082 -6.4429 1.9105 1.9393 -0.0000 0.0000 -9.8029 -18.0905 6.3091 10.3889 -0.0000 0.0000
 4.1799 32.3572 0.6893 -4.9649 -0.9102 0.2186 3.1056 4.0499 -0.2322 2.3434 -4.4822 3.1047 -14.2856 6.0892 42.3375 -20.1388 -3.1476 -42.3295 10.7313 0.0000 19.9015 -0.8083 -9.6657 -4.8030 33.1476 -0.0000 26.2537 1.1062 -26.1658 -42.3201 -23.2228 3.0129 40.4911 5.9878 -0.0000 18.9673 -2.3728 14.6745 9.2896 32.8623 0.0000 -24.3270 11.1050 -0.5586 -1.1074 2.4922 -0.0000 0.0000 -12.8704 24.1291 -12.4012 16.3841 -0.0000 0.0000 9.3082 -6.4344 1.9100 1.9441 -0.0000 -0.0000 -9.8203 -18.1155 6.2905 10.4235 0.0000 0.0000
 4.1792 32.3570 0.6888 -4.9658 -0.8996 0.2208 3.1039 4.0433 -0.2364 2.3603 -4.4795 3.1082 -14.2944 6.0602 42.3431 -20.0658 -3.1552 -42.3300 10.7190 0.0000 19.8704 -0.8172 -9.7575 -4.8109 33.1476 -0.0000 26.2537 1.1179 -26.1610 -42.3192 -23.2295 3.0139 40.4921 5.9717 -0.0000 18.9449 -2.3555 14.6511 9.2372 32.8623 0.0000 -24.3270 11.1010 -0.5534 -1.1049 2.4963 -0.0000 -0.0000 -12.8702 24.1126 -12.4162 16.3894 -0.0000 -0.0000 9.3098 -6.4415 1.9099 1.9455 -0.0000 -0.0000 -9.8180 -18.1105 6.2998 10.3559 0.0000 -0.0000
 4.1786 32.3571 0.6882 -4.9683 -0.8858 0.2221 3.1080 4.0387 -0.2334 2.3615 -4.4674 3.0912 -14.3003 6.0533 42.3371 -20.0867 -3.1592 -42.3330 10.7329 0.0000 19.9259 -0.8115 -9.6782 -4.8160 33.1476 -0.0000 26.2537 1.1045 -26.1604 -42.3289 -23.2004 3.0464 40.4920 5.9748 -0.0000 18.9094 -2.3155 14.5658 9.1340 32.8623 0.0000 -24.3270 11.0936 -0.5607 -1.1042 2.5090 0.0000 0.0000 -12.8694 24.1154 -12.4139 16.4415 0.0000 -0.0000 9.3136 -6.4460 1.9119 1.9468 0.0000 -0.0000 -9.8272 -18.1176 6.3027 10.4008 0.0000 0.0000
 4.1781 32.3572 0.6882 -4.9685 -0.8754 0.2266 3.1043 4.0273 -0.2374 2.3814 -4.4550 3.0887 -14.2300 6.1473 42.3226 -20.2000 -3.2108 -42.3350 10.7562 0.0000 19.9384 -0.8094 -9.6658 -4.8097 33.1476 -0.0000 26.2537 1.1195 -26.1597 -42.3216 -23.2236 3.0534 40.4792 5.9537 -0.0000 18.8404 -2.3246 14.5274 9.1925 32.8623 0.0000 -24.3270 11.0917 -0.5518 -1.1052 2.5096 -0.0000 0.0000 -12.8653 24.1007 -12.4270 16.4494 0.0000 -0.0000 9.3155 -6.4561 1.9110 1.9434 0.0000 -0.0000 -9.8288 -18.1238 6.2811 10.4116 0.0000 -0.0000
 4.1772 32.3573 0.6881 -4.9717 -0.8666 0.2319 3.1050 4.0286 -0.2417 2.3947 -4.4519 3.0750 -14.2368 6.1202 42.3086 -20.1732 -3.2097 -42.3170 10.7250 0.0000 19.9747 -0.8185 -9.5901 -4.9015 33.1476 -0.0000 26.2537 1.1079 -26.1217 -42.3137 -23.1580 3.0653 40.4444 5.9870 -0.0000 18.7597 -2.2740 14.3371 9.1105 32.8623 0.0000 -24.3270 11.0967 -0.5825 -1.1060 2.5039 0.0000 -0.0000 -12.8578 24.1119 -12.4168 16.3964 0.0000 -0.0000 9.3148 -6.4821 1.9081 1.9559 0.0000 -0.0000 -9.8428 -18.1098 6.2833 10.3902 0.0000 -0.0000
 4.1780 32.3571 0.6886 -4.9791 -0.8683 0.2395 3.1114 4.0272 -0.2481 2.4046 -4.4375 3.0700 -14.2887 6.0586 42.3312 -20.0776 -3.1827 -42.3279 10.7048 0.0000 19.9826 -0.8235 -9.5932 -4.9297 33.1476 -0.0000 26.2537 1.1070 -26.1151 -42.3269 -23.2268 3.0025 40.4547 5.9599 -0.0000 18.8590 -2.2960 14.4096 9.1526 32.8623 0.0000 -24.3270 11.1041 -0.5389 -1.1150 2.5051 0.0000 -0.0000 -12.8470 24.0746 -12.4277 16.3866 -0.0000 0.0000 9.3222 -6.4724 1.8986 1.9527 -0.0000 0.0000 -9.8415 -18.1133 6.2929 10.3905 0.0000 -0.0000
 4.1777 32.3571 0.6886 -4.9769 -0.8593 0.2384 3.1060 4.0240 -0.2415 2.4136 -4.4349 3.0541 -14.2860 6.0617 42.3245 -20.0895 -3.1803 -42.3229 10.6972 0.0000 20.0046 -0.8234 -9.5824 -4.9343 33.1476 -0.0000 26.2537 1.1033 -26.1231 -42.3371 -23.3006 2.9524 40.4599 5.9408 -0.0000 18.9626 -2.3104 14.4780 9.1671 32.8623 0.0000 -24.3270 11.1016 -0.5386 -1.1115 2.5032 -0.0000 -0.0000 -12.8488 24.0608 -12.4064 16.4261 0.0000 0.0000 9.3220 -6.4862 1.9011 1.9533 0.0000 -0.0000 -9.8372 -18.1125 6.3099 10.4153 -0.0000 0.0000
 4.1754 32.3569 0.6875 -4.9763 -0.8529 0.2365 3.1094 4.0308 -0.2456 2.4121 -4.4428 3.0615 -14.2855 6.0565 42.3288 -20.0858 -3.1923 -42.3229 10.6954 0.0000 19.9931 -0.8164 -9.6041 -4.8817 33.1476 -0.0000 26.2537 1.0893 -26.1296 -42.3434 -23.2953 2.9583 40.4595 5.9364 -0.0000 18.9850 -2.3235 14.4927 9.2094 32.8623 0.0000 -24.3270 11.1003 -0.5798 -1.1061 2.4998 0.0000 -0.0000 -12.8616 24.1095 -12.4377 16.4389 -0.0000 -0.0000 9.3189 -6.4631 1.9081 1.9579 0.0000 -0.0000 -9.8457 -18.1348 6.2815 10.3745 -0.0000 -0.0000
 4.1754 32.3569 0.6879 -4.9782 -0.8454 0.2374 3.1101 4.0290 -0.2400 2.4132 -4.4442 3.0455 -14.2666 6.0728 42.3274 -20.1059 -3.1937 -42.3252 10.6907 0.0000 19.9867 -0.8157 -9.6075 -4.8762 33.1476 -0.0000 26.2537 1.0800 -26.1343 -42.3639 -23.2148 3.0186 40.4498 5.9436 -0.0000 18.8999 -2.3626 14.5695 9.3142 32.8623 0.0000 -24.3270 11.0967 -0.5687 -1.1029 2.5104 -0.0000 -0.0000 -12.8672 24.0934 -12.4738 16.4858 -0.0000 -0.0000 9.3263 -6.4810 1.9080 1.9518 0.0000 0.0000 -9.8394 -18.1207 6.2836 10.3715 -0.0000 -0.0000
